<svg width="20" height="20" viewBox="0 0 20 20" fill="none" xmlns="http://www.w3.org/2000/svg">
<path d="M19.5238 19.5238H0.47619V0.47619H19.5238V19.5238Z" stroke="#000000" stroke-width="0.952381"/>
<path d="M3.71781 13.8572V13.1267L6.46132 10.1234C6.78329 9.77168 7.04844 9.46594 7.25677 9.2062C7.46511 8.94376 7.61933 8.69755 7.71944 8.46757C7.82225 8.23488 7.87366 7.99138 7.87366 7.73705C7.87366 7.44484 7.80331 7.19186 7.66262 6.97812C7.52463 6.76437 7.33524 6.59933 7.09444 6.48299C6.85363 6.36665 6.58307 6.30848 6.28275 6.30848C5.96348 6.30848 5.6848 6.37476 5.44671 6.50734C5.21132 6.63721 5.02869 6.81984 4.89882 7.05523C4.77165 7.29062 4.70807 7.56659 4.70807 7.88315H3.75028C3.75028 7.39614 3.86256 6.96865 4.08713 6.60068C4.3117 6.23272 4.61743 5.94592 5.00434 5.74029C5.39395 5.53467 5.83091 5.43185 6.31521 5.43185C6.80223 5.43185 7.23377 5.53467 7.60986 5.74029C7.98594 5.94592 8.28085 6.22325 8.4946 6.57227C8.70834 6.9213 8.81521 7.30956 8.81521 7.73705C8.81521 8.04278 8.75975 8.34176 8.64882 8.63396C8.54059 8.92347 8.3512 9.24679 8.08064 9.60393C7.81278 9.95837 7.44076 10.3913 6.96456 10.9026L5.09768 12.8994V12.9643H8.96132V13.8572H3.71781ZM13.3485 13.8572H10.7836V5.54549H13.4621C14.2684 5.54549 14.9583 5.71189 15.5319 6.04468C16.1055 6.37476 16.5452 6.8496 16.8509 7.46919C17.1567 8.08607 17.3095 8.82471 17.3095 9.6851C17.3095 10.5509 17.1553 11.2963 16.8469 11.9213C16.5384 12.5436 16.0893 13.0225 15.4995 13.358C14.9096 13.6908 14.1926 13.8572 13.3485 13.8572ZM11.7901 12.9643H13.2836C13.9708 12.9643 14.5403 12.8317 14.9922 12.5666C15.444 12.3014 15.7809 11.924 16.0027 11.4343C16.2246 10.9446 16.3355 10.3615 16.3355 9.6851C16.3355 9.0141 16.2259 8.43645 16.0068 7.95214C15.7876 7.46513 15.4602 7.09176 15.0246 6.83201C14.589 6.56957 14.0465 6.43835 13.3972 6.43835H11.7901V12.9643Z" fill="#000000"/>
</svg>
