<svg width="20" height="20" viewBox="0 0 20 20" fill="none" xmlns="http://www.w3.org/2000/svg">
<path d="M0.47619 6.19048H13.8095V19.5238H0.47619V6.19048ZM14.7619 18.8504V5.91153L19.5238 1.14963V14.0885L14.7619 18.8504ZM6.37666 0.47619H18.8504L14.0885 5.2381H1.21793L6.37666 0.47619Z" stroke="#000000" stroke-width="0.952381"/>
<path d="M7.4784 15.8756C6.94269 15.8756 6.46514 15.7836 6.04577 15.5996C5.62911 15.4156 5.29767 15.16 5.05145 14.8326C4.80795 14.5025 4.67537 14.1196 4.65373 13.684H5.67645C5.6981 13.9519 5.79009 14.1832 5.95243 14.378C6.11477 14.5701 6.32716 14.7189 6.5896 14.8245C6.85205 14.93 7.1429 14.9827 7.46217 14.9827C7.81931 14.9827 8.13587 14.9205 8.41184 14.7961C8.68782 14.6716 8.90427 14.4984 9.06119 14.2766C9.21812 14.0547 9.29658 13.7977 9.29658 13.5055C9.29658 13.1997 9.22083 12.9305 9.06931 12.6978C8.9178 12.4624 8.69593 12.2785 8.40373 12.1459C8.11152 12.0133 7.75438 11.947 7.3323 11.947H6.66671V11.0542H7.3323C7.66238 11.0542 7.95189 10.9946 8.2008 10.8756C8.45243 10.7566 8.64859 10.5888 8.78928 10.3724C8.93268 10.1559 9.00438 9.90157 9.00438 9.60936C9.00438 9.32798 8.94215 9.08312 8.81769 8.87479C8.69323 8.66645 8.51736 8.50412 8.29009 8.38777C8.06552 8.27143 7.80037 8.21326 7.49464 8.21326C7.20784 8.21326 6.93728 8.26602 6.68295 8.37154C6.43132 8.47435 6.2257 8.62452 6.06606 8.82203C5.90643 9.01683 5.81985 9.25222 5.80632 9.5282H4.8323C4.84853 9.09259 4.97975 8.7111 5.22597 8.38372C5.47218 8.05363 5.79415 7.79659 6.19188 7.61261C6.59231 7.42863 7.03197 7.33664 7.51087 7.33664C8.02494 7.33664 8.46596 7.4408 8.83392 7.64914C9.20189 7.85477 9.48462 8.12668 9.68214 8.46488C9.87965 8.80309 9.9784 9.16835 9.9784 9.56066C9.9784 10.0287 9.8553 10.4278 9.60908 10.7579C9.36558 11.088 9.03414 11.3166 8.61477 11.4438V11.5087C9.13966 11.5953 9.54956 11.8185 9.84447 12.1784C10.1394 12.5355 10.2868 12.9779 10.2868 13.5055C10.2868 13.9573 10.1637 14.3632 9.91753 14.723C9.67402 15.0801 9.34123 15.3615 8.91915 15.5672C8.49707 15.7728 8.01682 15.8756 7.4784 15.8756Z" fill="#000000"/>
<path d="M14.5 3C15 1.5 11 1.5 9 1.5L6 4.49991C8 4.5 13.7865 5.14064 14.5 3Z" stroke="#000000" stroke-width="0.75"/>
</svg>
