<svg width="20" height="20" viewBox="0 0 20 20" fill="none" xmlns="http://www.w3.org/2000/svg">
<path d="M9.93006 2.96863C9.00149 2.96863 8.63006 4.08291 9.28006 4.73291L10.6729 6.03291H3.98721C2.59435 6.03291 2.59435 8.07576 3.98721 8.07576H7.05149L2.31578 12.3472C1.29436 13.2758 2.68721 14.7615 3.61578 13.8329L5.93721 11.6972C6.03006 14.6686 8.44434 17.0829 11.4158 17.0829C14.48 17.0829 16.8943 14.5758 16.8943 11.6043C16.8943 10.0258 16.2443 8.6329 15.13 7.61148L10.4872 3.34006C10.4872 3.06149 10.2086 2.96863 9.93006 2.96863ZM11.5086 7.98291C13.4586 7.98291 15.0372 9.56148 15.0372 11.5115C15.0372 13.4615 13.4586 15.04 11.5086 15.04C9.55863 15.04 7.98006 13.4615 7.98006 11.5115C7.98006 9.56148 9.55863 7.98291 11.5086 7.98291Z" fill="#FF9800"/>
<path d="M9.74438 11.4186C9.74438 10.49 10.5801 9.74719 11.5087 9.74719C12.4372 9.74719 13.1801 10.5829 13.273 11.4186C13.273 12.3472 12.4372 13.09 11.5087 13.09C10.4872 13.09 9.74438 12.3472 9.74438 11.4186Z" fill="#1976D2"/>
</svg>
