<svg width="20" height="20" viewBox="0 0 20 20" fill="none" xmlns="http://www.w3.org/2000/svg">
<path d="M14.8573 3L4.67871 13.1786C4.67871 13.1786 4.74662 14.3179 5.21443 14.7857C5.68223 15.2535 6.82157 15.3214 6.82157 15.3214L17.0001 5.14286C17.0001 5.14286 16.9322 4.00352 16.4644 3.53571C15.9966 3.06791 14.8573 3 14.8573 3Z" fill="#D9D9D9"/>
<path d="M4.14286 13.7144L3.07143 14.7858L2 18.0001L5.21429 16.9286L6.28571 15.8572C6.28571 15.8572 5.14638 15.7893 4.67857 15.3215C4.21076 14.8537 4.14286 13.7144 4.14286 13.7144Z" fill="#D9D9D9"/>
<path d="M15.9284 7.82151L8.42842 15.3215C8.42842 15.3215 8.49634 16.4608 8.96415 16.9286C9.43195 17.3964 10.5713 17.4644 10.5713 17.4644L12.1784 15.8572L10.5713 14.2501L11.107 13.7144L12.7141 15.3215L13.7856 14.2501L12.1784 12.6429L12.7141 12.1072L14.3883 13.6474L15.3927 12.6429L13.7856 11.0358L14.3213 10.5001L15.9787 12.057L16.9999 11.0358L15.3927 9.42865L15.9284 8.89294L17.5356 10.5001L18.0713 9.96437C18.0713 9.96437 18.0034 8.82503 17.5356 8.35722C17.0678 7.88942 15.9284 7.82151 15.9284 7.82151Z" fill="#D9D9D9"/>
</svg>
