<svg width="20" height="20" viewBox="0 0 20 20" fill="none" xmlns="http://www.w3.org/2000/svg">
<path d="M2.5 17.5V2.5H17.5V17.5H2.5Z" fill="#FFD600"/>
<path d="M12.3075 13.7279C12.5959 14.1963 12.9092 14.645 13.573 14.645C14.1305 14.645 14.423 14.3679 14.423 13.9846C14.423 13.5259 14.1205 13.3629 13.5071 13.0959L13.1709 12.9525C12.2005 12.5409 11.555 12.025 11.555 10.9354C11.555 9.93127 12.3238 9.1671 13.525 9.1671C14.3805 9.1671 14.995 9.46335 15.4384 10.2392L14.3909 10.9088C14.1605 10.4971 13.9113 10.335 13.525 10.335C13.1309 10.335 12.8813 10.5838 12.8813 10.9088C12.8813 11.3104 13.1313 11.4729 13.7084 11.7217L14.0446 11.865C15.1884 12.3521 15.8334 12.8496 15.8334 13.9679C15.8334 15.1729 14.8817 15.8334 13.6042 15.8334C12.3546 15.8334 11.645 15.2063 11.25 14.43L12.3075 13.7279ZM7.48004 13.7621C7.69088 14.1396 8.01129 14.43 8.47213 14.43C8.91296 14.43 9.16671 14.2559 9.16671 13.5788V9.16669H10.5555V13.7921C10.5555 15.195 9.74171 15.8334 8.55338 15.8334C7.47963 15.8334 6.70463 15.1059 6.38879 14.43L7.48004 13.7621Z" fill="#000001"/>
</svg>
