<svg width="20" height="20" viewBox="0 0 20 20" fill="none" xmlns="http://www.w3.org/2000/svg">
<path d="M14.5208 3H5.47917C4.10996 3 3 4.13842 3 5.54273V14.4573C3 15.8616 4.10996 17 5.47917 17H14.5208C15.89 17 17 15.8616 17 14.4573V5.54273C17 4.13842 15.89 3 14.5208 3Z" fill="#1E3101"/>
<path d="M6.00026 12.8909V7.09985C5.99957 7.09117 6.00024 7.0824 6.00222 7.07404C6.00421 7.06569 6.00747 7.05792 6.01182 7.05117C6.01617 7.04443 6.02153 7.03885 6.02758 7.03475C6.03363 7.03065 6.04026 7.02811 6.04709 7.02728H6.05042C6.1218 7.02119 6.2269 7.01669 6.36508 7.01351C6.50327 7.01033 6.6656 7.00768 6.85165 7.0045C7.0377 7.00132 7.23561 7 7.44539 7C8.01784 7 8.49247 7.12439 8.86929 7.37318C9.22641 7.59841 9.52188 7.95543 9.71713 8.39763C9.90555 8.83164 9.99968 9.33089 9.99954 9.89538C10.0053 10.2903 9.95602 10.6833 9.85386 11.0562C9.76377 11.3755 9.62739 11.6703 9.45179 11.9255C9.28597 12.1646 9.09156 12.3691 8.87574 12.5312C8.66176 12.6918 8.43035 12.8114 8.18897 12.8861C7.95261 12.961 7.70999 12.9992 7.46641 13H6.93364C6.74537 13 6.57014 12.9985 6.40795 12.9955C6.24577 12.9925 6.12409 12.9879 6.04293 12.9817C6.01462 12.9817 6.00026 12.9515 6.00026 12.8909ZM6.98754 8.11954V11.8892C7.03999 11.8892 7.08772 11.8907 7.13073 11.8937L7.26308 11.9027C7.30824 11.9059 7.35965 11.9075 7.41688 11.9075C7.63329 11.9109 7.8486 11.8677 8.0537 11.7798C8.23734 11.7005 8.40472 11.5699 8.54359 11.3976C8.68345 11.22 8.79094 11.0055 8.85847 10.7691C8.93547 10.4975 8.97306 10.2103 8.96939 9.9216C8.97376 9.64977 8.93731 9.37936 8.862 9.12492C8.79495 8.90538 8.68839 8.7089 8.55088 8.55125C8.4103 8.39364 8.24418 8.27736 8.06431 8.21065C7.86336 8.13565 7.6548 8.09887 7.44539 8.10153C7.35007 8.10153 7.27016 8.10285 7.20585 8.10603C7.14155 8.10921 7.06871 8.11371 6.98754 8.11954Z" fill="#99E83F"/>
<path d="M14.5675 9.35466C14.3597 9.26118 14.1384 9.19267 13.9096 9.15099C13.6569 9.10024 13.3986 9.0742 13.1393 9.07335C12.9992 9.07023 12.8592 9.08491 12.7239 9.11695C12.6379 9.13382 12.5615 9.17666 12.5082 9.23791C12.4721 9.2869 12.4528 9.34393 12.4528 9.4022C12.4549 9.45872 12.4782 9.51307 12.5191 9.55691C12.5839 9.62297 12.6629 9.67726 12.7516 9.71669C12.9095 9.79049 13.0722 9.85624 13.2388 9.91361C13.6104 10.0227 13.9654 10.171 14.296 10.355C14.5214 10.4791 14.7078 10.6502 14.8386 10.8529C14.9487 11.0448 15.004 11.2571 14.9997 11.4718C15.0064 11.7552 14.9137 12.0337 14.734 12.2698C14.5417 12.5094 14.2747 12.6957 13.9647 12.8065C13.6274 12.9354 13.2119 12.9998 12.7181 12.9998C12.4046 13.0025 12.0916 12.9766 11.7843 12.9224C11.5522 12.8842 11.327 12.8192 11.1145 12.7292C11.0903 12.7182 11.0702 12.7015 11.0565 12.6809C11.0428 12.6603 11.0361 12.6368 11.0372 12.613V11.5685C11.0358 11.5583 11.0376 11.5479 11.0425 11.5386C11.0474 11.5292 11.0551 11.5212 11.0649 11.5154C11.0744 11.5107 11.0853 11.5087 11.0961 11.5095C11.107 11.5104 11.1173 11.5141 11.1257 11.5201C11.3789 11.6565 11.6556 11.7562 11.9453 11.8152C12.2087 11.8729 12.4788 11.9037 12.7503 11.9069C13.0079 11.9069 13.198 11.878 13.3206 11.82C13.3756 11.798 13.4222 11.7625 13.4546 11.7179C13.487 11.6733 13.5039 11.6214 13.5032 11.5685C13.5032 11.4851 13.4479 11.4045 13.3374 11.3269C13.2268 11.2492 13.0014 11.1555 12.6611 11.0456C12.3136 10.9399 11.984 10.7935 11.6815 10.6104C11.4652 10.4788 11.2871 10.3049 11.1611 10.1026C11.0521 9.91213 10.9969 9.70155 11.0001 9.48856C11.001 9.23256 11.0829 8.98175 11.2368 8.76391C11.4107 8.52345 11.6606 8.33206 11.9562 8.21284C12.2808 8.07106 12.6868 8.00017 13.1741 8.00017C13.4594 7.99803 13.7444 8.01581 14.0265 8.05334C14.2252 8.07578 14.4191 8.12315 14.6023 8.19399C14.6173 8.19776 14.6311 8.20452 14.6426 8.21375C14.6541 8.22297 14.663 8.23441 14.6686 8.24716C14.6761 8.27079 14.6798 8.29522 14.6796 8.31973V9.29642C14.6805 9.30774 14.6779 9.31906 14.6723 9.32927C14.6667 9.33948 14.6581 9.34823 14.6474 9.35466C14.6355 9.36146 14.6216 9.36508 14.6074 9.36508C14.5932 9.36508 14.5794 9.36146 14.5675 9.35466Z" fill="#99E83F"/>
</svg>
