<svg width="20" height="20" viewBox="0 0 20 20" fill="none" xmlns="http://www.w3.org/2000/svg">
<path d="M5.47917 3H14.5208C15.89 3 17 4.13843 17 5.54274V14.4573C17 15.8616 15.89 17 14.5208 17H5.47917C4.10997 17 3 15.8616 3 14.4573V5.54274C3 4.13843 4.10997 3 5.47917 3Z" fill="#1E3101"/>
<path d="M6.0282 12.8176V6.66249C6.0282 6.61761 6.04698 6.59506 6.08455 6.59506C6.18465 6.59506 6.30359 6.59344 6.44143 6.59021C6.57904 6.58704 6.72779 6.58387 6.88751 6.58058C7.04716 6.57741 7.21621 6.57418 7.39466 6.57095C7.5731 6.56778 7.74996 6.56616 7.92531 6.5661C8.40108 6.5661 8.80177 6.62713 9.12745 6.74912C9.42121 6.85101 9.68908 7.01889 9.91162 7.24037C10.1003 7.43237 10.246 7.66408 10.339 7.91949C10.4268 8.16802 10.4713 8.43055 10.4705 8.69488C10.4705 9.20869 10.3546 9.63252 10.123 9.96637C9.88975 10.3016 9.56197 10.5554 9.1838 10.6936C8.76228 10.8493 8.31691 10.926 7.86897 10.92C7.73118 10.92 7.63417 10.9184 7.57782 10.9152C7.52147 10.912 7.43695 10.9104 7.32425 10.9103V12.8079C7.33008 12.8498 7.30173 12.8887 7.2609 12.8946C7.2539 12.8957 7.24678 12.8957 7.23978 12.8946H6.09394C6.05007 12.8947 6.0282 12.8692 6.0282 12.8176ZM7.32425 7.75096V9.74488C7.40556 9.75134 7.4807 9.75457 7.54965 9.75451H7.85957C8.0869 9.75792 8.31335 9.72543 8.53105 9.65819C8.71713 9.60153 8.88338 9.49114 9.01002 9.34031C9.13211 9.19266 9.19319 8.9872 9.19319 8.72384C9.19815 8.53753 9.1509 8.35361 9.05704 8.19405C8.95834 8.03975 8.81572 7.92033 8.64853 7.85213C8.43025 7.76508 8.19703 7.72415 7.96294 7.73175C7.81267 7.73175 7.67961 7.73337 7.56376 7.73654C7.4478 7.73983 7.368 7.74467 7.32425 7.75096Z" fill="#99E83F"/>
<path d="M13.9547 11.9411V12.731C13.9547 12.8017 13.9297 12.8434 13.8796 12.8562C13.7563 12.8958 13.6308 12.928 13.5039 12.9525C13.3551 12.9797 13.2042 12.9926 13.0531 12.991C12.646 12.991 12.3267 12.8818 12.0951 12.6635C11.8634 12.4453 11.7476 12.0953 11.7477 11.6136V9.22473H11.1935C11.1434 9.22473 11.1184 9.19583 11.1184 9.13804V8.18442C11.1184 8.13309 11.1466 8.10742 11.2029 8.10736H11.757C11.7632 7.99824 11.771 7.8714 11.7805 7.72691C11.7899 7.58242 11.8024 7.43794 11.8181 7.29345C11.8337 7.14896 11.8478 7.03176 11.8604 6.94189C11.8665 6.92263 11.8761 6.90468 11.8885 6.88895C11.9007 6.87327 11.9169 6.86154 11.9355 6.85526L13.0531 6.71077C13.0776 6.70665 13.0935 6.70665 13.1047 6.71341C13.1171 6.71987 13.1188 6.7365 13.1188 6.76857C13.1062 6.91635 13.0968 7.11707 13.0907 7.37057C13.0844 7.6243 13.0781 7.86996 13.0719 8.10742H13.9453C13.9829 8.10742 14.0016 8.13309 14.0016 8.18448V9.15736C14.0064 9.18919 13.9856 9.21911 13.9547 9.22479H13.0625V11.2861C13.0625 11.5045 13.0985 11.6603 13.1705 11.7533C13.2424 11.8464 13.3754 11.893 13.5696 11.893C13.626 11.893 13.6791 11.8915 13.7293 11.8881C13.7793 11.885 13.8294 11.8802 13.8796 11.8737C13.8966 11.8672 13.9156 11.8689 13.9312 11.8785C13.9468 11.8881 13.9547 11.909 13.9547 11.9411Z" fill="#99E83F"/>
</svg>
