<svg width="20" height="20" viewBox="0 0 20 20" fill="none" xmlns="http://www.w3.org/2000/svg">
<path fill-rule="evenodd" clip-rule="evenodd" d="M17 3.42017C17 3.18837 16.8118 3.00018 16.58 3.00018H3.42047C3.18868 3.00018 3.00049 3.18837 3.00049 3.42017V16.5797C3.00049 16.8115 3.18868 16.9996 3.42047 16.9996H16.58C16.8118 16.9996 17 16.8115 17 16.5797V3.42017Z" fill="#F28FFF"/>
<mask id="mask0_26_112" style="mask-type:luminance" maskUnits="userSpaceOnUse" x="3" y="3" width="14" height="14">
<path d="M17 3.42017C17 3.18837 16.8118 3.00018 16.58 3.00018H3.42047C3.18868 3.00018 3.00049 3.18837 3.00049 3.42017V16.5797C3.00049 16.8115 3.18868 16.9996 3.42047 16.9996H16.58C16.8118 16.9996 17 16.8115 17 16.5797V3.42017Z" fill="white"/>
</mask>
<g mask="url(#mask0_26_112)">
<path fill-rule="evenodd" clip-rule="evenodd" d="M6.0479 8.26823L2.56287 14.3383L2.63399 2.78146H9.19804L8.79104 3.49037L12.1966 9.4019L16.3067 2.35211L16.7792 2.62751L11.5139 11.6587H17.4544V12.2056H9.37566L12.1145 17.0473L11.6385 17.3166L7.78063 10.4965L3.80044 17.3197L3.32806 17.0442L8.44739 8.26823H6.0479ZM8.25789 9.67835C8.15989 9.84638 8.15851 10.0538 8.25428 10.2231C8.43394 10.5407 8.72866 11.0618 8.9093 11.3811C9.00635 11.5527 9.1882 11.6587 9.38528 11.6587C9.71784 11.6587 10.2359 11.6587 10.5667 11.6587C10.7612 11.6587 10.9411 11.5554 11.0391 11.3873C11.2253 11.0679 11.5327 10.5406 11.7195 10.2202C11.8182 10.0508 11.8188 9.8416 11.7209 9.67179C11.5412 9.35982 11.2497 8.85377 11.0702 8.5421C10.9725 8.37264 10.7919 8.26823 10.5963 8.26823H9.39458C9.20008 8.26823 9.0202 8.37155 8.92221 8.53954C8.73949 8.85282 8.44065 9.36507 8.25789 9.67835ZM8.47601 4.03905L6.36187 7.72138H10.5974L8.47601 4.03905Z" fill="#7140C2"/>
<path fill-rule="evenodd" clip-rule="evenodd" d="M6.0479 8.26823L2.56287 14.3383L2.63399 2.78146H9.19804L8.79104 3.49037L12.1966 9.4019L16.3067 2.35211L16.7792 2.62751L11.5139 11.6587H17.4544V12.2056H9.37566L12.1145 17.0473L11.6385 17.3166L7.78063 10.4965L3.80044 17.3197L3.32806 17.0442L8.44739 8.26823H6.0479ZM8.70128 8.1224H5.96347L2.71208 13.7855L2.77891 2.92729H8.94616L8.62282 3.49048L12.1958 9.69275L16.3593 2.55153L16.5797 2.68004L11.26 11.8046H17.3086V12.0598H9.12564L11.9157 16.9922L11.6936 17.1179C11.1659 16.1849 7.90757 10.4247 7.90757 10.4247L7.7826 10.2038L3.74794 17.1203L3.52752 16.9917C4.15385 15.918 8.57335 8.34169 8.57335 8.34169L8.70128 8.1224ZM8.13193 9.60489C8.00779 9.81772 8.00604 10.0805 8.12737 10.2949C8.307 10.6125 8.60171 11.1336 8.78236 11.4529C8.90529 11.6702 9.13563 11.8046 9.38528 11.8046C9.71784 11.8046 10.2359 11.8046 10.5667 11.8046C10.8131 11.8046 11.0409 11.6736 11.1651 11.4608C11.3513 11.1414 11.6587 10.6141 11.8455 10.2936C11.9706 10.0791 11.9713 9.81411 11.8473 9.59898C11.6676 9.28702 11.3761 8.78096 11.1965 8.46933C11.0729 8.25467 10.844 8.1224 10.5963 8.1224H9.39458C9.1482 8.1224 8.92038 8.25325 8.79625 8.46605L8.13193 9.60489ZM8.25789 9.67835C8.15989 9.84638 8.15851 10.0538 8.25428 10.2231C8.43394 10.5407 8.72866 11.0618 8.9093 11.3811C9.00635 11.5527 9.1882 11.6587 9.38528 11.6587C9.71784 11.6587 10.2359 11.6587 10.5667 11.6587C10.7612 11.6587 10.9411 11.5554 11.0391 11.3873C11.2253 11.0679 11.5327 10.5406 11.7195 10.2202C11.8182 10.0508 11.8188 9.8416 11.7209 9.67179C11.5412 9.35982 11.2497 8.85377 11.0702 8.5421C10.9725 8.37264 10.7919 8.26823 10.5963 8.26823H9.39458C9.20008 8.26823 9.0202 8.37155 8.92221 8.53954C8.73949 8.85282 8.44065 9.36507 8.25789 9.67835ZM10.8497 7.86721L8.47579 3.74655L6.10999 7.86721H10.8497ZM8.47601 4.03905L6.36187 7.72138H10.5974L8.47601 4.03905Z" fill="black" fill-opacity="0.3"/>
<path fill-rule="evenodd" clip-rule="evenodd" d="M6.13241 8.41405H8.19358L3.12872 17.0967L3.85301 17.5192L7.77877 10.7893L11.5834 17.5153L12.3133 17.1025L9.62576 12.3514H17.6003V11.5129H11.7678L16.9787 2.575L16.2543 2.15265L12.1974 9.11107L8.95933 3.49025L9.45 2.63563H2.48912L2.41711 14.3374L2.68941 14.4109L6.13241 8.41405ZM6.04798 8.26823L2.56294 14.3383L2.63407 2.78146H9.19812L8.79111 3.49036L12.1967 9.40189L16.3068 2.3521L16.7792 2.6275L11.5139 11.6587H17.4545V12.2056H9.37574L12.1145 17.0473L11.6386 17.3166L7.7807 10.4965L3.80051 17.3197L3.32814 17.0442L8.44747 8.26823H6.04798ZM8.25796 9.67834C8.15997 9.84637 8.15858 10.0538 8.25435 10.2231C8.43401 10.5407 8.72873 11.0618 8.90938 11.3811C9.00643 11.5527 9.18827 11.6587 9.38536 11.6587C9.71792 11.6587 10.2359 11.6587 10.5668 11.6587C10.7613 11.6587 10.9412 11.5554 11.0392 11.3873C11.2254 11.0679 11.5328 10.5406 11.7196 10.2202C11.8183 10.0508 11.8189 9.8416 11.721 9.67178C11.5413 9.35982 11.2498 8.85376 11.0703 8.54209C10.9726 8.37264 10.7919 8.26823 10.5964 8.26823H9.39466C9.20016 8.26823 9.02028 8.37155 8.92229 8.53954C8.73956 8.85281 8.44072 9.36507 8.25796 9.67834ZM8.38396 9.75184L9.04824 8.613C9.12014 8.48981 9.25204 8.41405 9.39466 8.41405H10.5964C10.7398 8.41405 10.8723 8.49065 10.9439 8.6149L11.5947 9.74455C11.6664 9.86912 11.666 10.0225 11.5936 10.1467C11.4068 10.4672 11.0994 10.9944 10.9132 11.3138C10.8413 11.4371 10.7094 11.5129 10.5668 11.5129H9.38536C9.24081 11.5129 9.10749 11.4351 9.03632 11.3093L8.3813 10.1513C8.31105 10.0272 8.31207 9.87507 8.38396 9.75184ZM8.47609 4.03904L6.36195 7.72137H10.5974L8.47609 4.03904ZM8.47631 4.33157L10.3451 7.57554H6.61383L8.47631 4.33157Z" fill="white" fill-opacity="0.3"/>
</g>
</svg>
