<svg width="20" height="20" viewBox="0 0 20 20" fill="none" xmlns="http://www.w3.org/2000/svg">
<path d="M7.5 3C7.36739 3 7.24022 3.05266 7.14645 3.14642C7.05269 3.24019 7 3.36739 7 3.5V12.5C7 12.6326 7.05269 12.7598 7.14645 12.8536C7.24022 12.9473 7.36739 13 7.5 13H16.5C16.6326 13 16.7598 12.9473 16.8535 12.8536C16.9473 12.7598 17 12.6326 17 12.5V3.5C17 3.36739 16.9473 3.24019 16.8535 3.14642C16.7598 3.05266 16.6326 3 16.5 3H7.5ZM8 4H16V12H8V4Z" fill="white"/>
<path d="M5.49207 4.99201C5.42641 4.99305 5.3616 5.00699 5.30133 5.03309C5.24107 5.05918 5.18653 5.09693 5.14084 5.14411C5.09515 5.19128 5.05919 5.24698 5.03504 5.30805C5.01088 5.36912 4.99901 5.43434 5.00007 5.5V14.5C5.00007 14.6326 5.05275 14.7598 5.14652 14.8536C5.24029 14.9473 5.36746 15 5.50007 15H14.5001C14.6327 15 14.7598 14.9473 14.8536 14.8536C14.9474 14.7598 15.0001 14.6326 15.0001 14.5C15.0001 14.3674 14.9474 14.2402 14.8536 14.1464C14.7598 14.0527 14.6327 14 14.5001 14H6.00007V5.5C6.00115 5.43299 5.98874 5.36645 5.9636 5.30433C5.93845 5.2422 5.90106 5.18576 5.85367 5.13837C5.80628 5.09098 5.74987 5.05359 5.68775 5.02845C5.62563 5.0033 5.55908 4.99093 5.49207 4.99201ZM3.49207 6.99201C3.42641 6.99305 3.3616 7.00699 3.30133 7.03309C3.24107 7.05918 3.18653 7.09693 3.14084 7.14411C3.09515 7.19128 3.05919 7.24698 3.03504 7.30805C3.01088 7.36912 2.99901 7.43434 3.00007 7.5V16.5C3.00007 16.6326 3.05275 16.7598 3.14652 16.8536C3.24029 16.9473 3.36746 17 3.50007 17H12.5001C12.6327 17 12.7598 16.9473 12.8536 16.8536C12.9474 16.7598 13.0001 16.6326 13.0001 16.5C13.0001 16.3674 12.9474 16.2402 12.8536 16.1464C12.7598 16.0527 12.6327 16 12.5001 16H4.00007V7.5C4.00115 7.43299 3.98874 7.36645 3.9636 7.30433C3.93845 7.2422 3.90106 7.18576 3.85367 7.13837C3.80628 7.09098 3.74987 7.05359 3.68775 7.02845C3.62563 7.0033 3.55908 6.99093 3.49207 6.99201Z" fill="white"/>
<path d="M16.4841 3.00001C16.3569 3.00391 16.236 3.05612 16.146 3.14601L7.14604 12.146C7.07594 12.2159 7.02817 12.3051 7.00881 12.4022C6.98944 12.4993 6.99933 12.6 7.03725 12.6915C7.07517 12.783 7.1394 12.8611 7.22179 12.916C7.30418 12.971 7.40103 13.0002 7.50005 13H16.5C16.6327 13 16.7598 12.9474 16.8536 12.8536C16.9474 12.7598 17 12.6326 17 12.5V3.50001C17.0001 3.43298 16.9866 3.36661 16.9605 3.30488C16.9344 3.24315 16.8961 3.18734 16.848 3.1407C16.7998 3.09405 16.7428 3.05756 16.6803 3.0334C16.6178 3.00923 16.5511 2.99787 16.4841 3.00001Z" fill="white"/>
</svg>
