<svg width="20" height="20" viewBox="0 0 20 20" fill="none" xmlns="http://www.w3.org/2000/svg">
<path d="M3 10C3 6.13396 6.13396 3 10 3C13.866 3 17 6.13396 17 10C17 13.866 13.866 17 10 17C6.13396 17 3 13.866 3 10Z" fill="#333333"/>
<path d="M8.5 14C8.89783 14 9.27936 13.842 9.56066 13.5607C9.84196 13.2794 10 12.8978 10 12.5V11H8.5C8.10218 11 7.72064 11.158 7.43934 11.4393C7.15804 11.7206 7 12.1022 7 12.5C7 12.8978 7.15804 13.2794 7.43934 13.5607C7.72064 13.842 8.10218 14 8.5 14Z" fill="#0ACF83"/>
<path d="M7 10C7 9.73478 7.15804 9.48043 7.43934 9.29289C7.72064 9.10536 8.10218 9 8.5 9H10V11H8.5C8.30302 11 8.10796 10.9741 7.92597 10.9239C7.74399 10.8736 7.57863 10.8 7.43934 10.7071C7.30005 10.6142 7.18956 10.504 7.11418 10.3827C7.0388 10.2614 7 10.1313 7 10Z" fill="#A259FF"/>
<path d="M7 7.5C7 7.10218 7.15804 6.72064 7.43934 6.43934C7.72064 6.15804 8.10218 6 8.5 6H10V9H8.5C8.10218 9 7.72064 8.84196 7.43934 8.56066C7.15804 8.27936 7 7.89782 7 7.5Z" fill="#F24E1E"/>
<path d="M10 6H11.5C11.8978 6 12.2794 6.15804 12.5607 6.43934C12.842 6.72064 13 7.10218 13 7.5C13 7.89782 12.842 8.27936 12.5607 8.56066C12.2794 8.84196 11.8978 9 11.5 9H10V6Z" fill="#FF7262"/>
<path d="M13 10C13 10.2652 12.842 10.5196 12.5607 10.7071C12.2794 10.8946 11.8978 11 11.5 11C11.1022 11 10.7206 10.8946 10.4393 10.7071C10.158 10.5196 10 10.2652 10 10C10 9.73478 10.158 9.48043 10.4393 9.29289C10.7206 9.10536 11.1022 9 11.5 9C11.8978 9 12.2794 9.10536 12.5607 9.29289C12.842 9.48043 13 9.73478 13 10Z" fill="#1ABCFE"/>
</svg>
