<svg width="20" height="20" viewBox="0 0 20 20" fill="none" xmlns="http://www.w3.org/2000/svg">
<path d="M2.5 4.16667C2.5 3.24625 3.24625 2.5 4.16667 2.5H15.8333C16.7537 2.5 17.5 3.24625 17.5 4.16667V15.8333C17.5 16.7537 16.7537 17.5 15.8333 17.5H4.16667C3.24625 17.5 2.5 16.7537 2.5 15.8333V4.16667Z" fill="#03A9F4"/>
<path d="M8.34003 7.9892H7.50586V9.8367H8.32794C8.55586 9.8367 8.73211 9.76211 8.85711 9.61295C8.98211 9.46378 9.04419 9.2467 9.04419 8.9617C9.04419 8.66586 8.98044 8.43086 8.85294 8.25586C8.72544 8.08086 8.55419 7.99211 8.34003 7.9892Z" fill="#020F16"/>
<path d="M3.75 3.75V16.25H16.25V3.75H3.75ZM9.73542 10.3287C9.39125 10.6654 8.91375 10.8333 8.30333 10.8333H7.50583V12.9167H6.30958V6.99208H8.32792C8.91375 6.99208 9.38125 7.17417 9.72958 7.5375C10.0779 7.90083 10.2525 8.37292 10.2525 8.95333C10.2525 9.53375 10.08 9.99208 9.73542 10.3287ZM13.6175 12.64C13.3221 12.8787 12.9337 12.9979 12.4537 12.9979C12.1308 12.9979 11.8458 12.935 11.5992 12.8087C11.3525 12.6825 11.1587 12.5067 11.0192 12.2817C10.8796 12.0567 10.8096 11.8138 10.8096 11.5533H11.9042C11.91 11.7538 11.9562 11.9046 12.0446 12.005C12.1329 12.1054 12.2771 12.1554 12.4779 12.1554C12.7871 12.1554 12.9417 12.0158 12.9417 11.7362C12.9417 11.6387 12.895 11.5483 12.8012 11.4658C12.7075 11.3833 12.5 11.2717 12.1771 11.1304C11.7025 10.9379 11.3762 10.7388 11.1983 10.5321C11.0204 10.3254 10.9317 10.0696 10.9317 9.76292C10.9317 9.3775 11.0708 9.05958 11.3487 8.80875C11.6267 8.55792 11.9954 8.4325 12.4533 8.4325C12.9358 8.4325 13.3225 8.5575 13.6129 8.80667C13.9033 9.05583 14.0483 9.39125 14.0483 9.81167H12.8967C12.8967 9.45375 12.7479 9.27458 12.4492 9.27458C12.3271 9.27458 12.2271 9.3125 12.1479 9.38833C12.0688 9.46417 12.03 9.57042 12.03 9.70583C12.03 9.80333 12.0733 9.88958 12.1604 9.96417C12.2475 10.0387 12.4517 10.1454 12.775 10.2837C13.2446 10.4575 13.5758 10.6508 13.77 10.8637C13.9642 11.0767 14.0608 11.3529 14.0608 11.6917C14.0608 12.0854 13.9129 12.4012 13.6175 12.64Z" fill="#020F16"/>
</svg>
