<svg width="20" height="20" viewBox="0 0 20 20" fill="none" xmlns="http://www.w3.org/2000/svg">
<path d="M9.69413 3C6.27058 3 6.48423 4.48129 6.48423 4.48129L6.48845 6.01599H9.75523V6.47639H5.19008C5.19008 6.47639 3 6.22832 3 9.67528C3 13.1214 4.91195 12.9995 4.91195 12.9995H6.05313V11.4C6.05313 11.4 5.9916 9.49238 7.93473 9.49238H11.1745C11.1745 9.49238 12.995 9.52181 12.995 7.73694V4.78571C12.995 4.78571 13.2715 3 9.69413 3ZM7.89259 4.03182C8.2175 4.03182 8.48046 4.29419 8.48046 4.61836C8.48046 4.94254 8.2175 5.20491 7.89259 5.20491C7.81536 5.20502 7.73887 5.18993 7.66749 5.16049C7.59612 5.13105 7.53127 5.08785 7.47666 5.03336C7.42205 4.97887 7.37875 4.91417 7.34925 4.84296C7.31974 4.77174 7.30461 4.69542 7.30472 4.61836C7.30472 4.29419 7.56768 4.03182 7.89259 4.03182Z" fill="url(#paint0_linear_25_68)"/>
<path d="M10.3059 17C13.7294 17 13.5158 15.5186 13.5158 15.5186L13.5116 13.9839H10.2448V13.5235H14.8095C14.8095 13.5235 17 13.7715 17 10.3249C17 6.87818 15.0881 7.00054 15.0881 7.00054H13.9469V8.59963C13.9469 8.59963 14.0084 10.5073 12.0653 10.5073H8.82545C8.82545 10.5073 7.00495 10.4779 7.00495 12.2629V15.2142C7.00495 15.2142 6.72851 17 10.3059 17ZM12.1074 15.9681C12.0302 15.9683 11.9537 15.9532 11.8823 15.9237C11.8109 15.8943 11.7461 15.8511 11.6915 15.7966C11.6369 15.7421 11.5936 15.6774 11.5641 15.6062C11.5346 15.535 11.5194 15.4586 11.5195 15.3816C11.5195 15.0578 11.7825 14.7954 12.1074 14.7954C12.4323 14.7954 12.6953 15.0574 12.6953 15.3816C12.6953 15.7062 12.4323 15.9681 12.1074 15.9681Z" fill="url(#paint1_linear_25_68)"/>
<defs>
<linearGradient id="paint0_linear_25_68" x1="4.29584" y1="4.16973" x2="10.9488" y2="10.86" gradientUnits="userSpaceOnUse">
<stop stop-color="#387EB8"/>
<stop offset="1" stop-color="#366994"/>
</linearGradient>
<linearGradient id="paint1_linear_25_68" x1="8.91269" y1="9.03146" x2="16.059" y2="15.8931" gradientUnits="userSpaceOnUse">
<stop stop-color="#FFE052"/>
<stop offset="1" stop-color="#FFC331"/>
</linearGradient>
</defs>
</svg>
