<svg width="20" height="20" viewBox="0 0 20 20" fill="none" xmlns="http://www.w3.org/2000/svg">
<path d="M15.0519 11.3165C14.5624 11.3194 14.1385 11.4426 13.783 11.6261C13.6517 11.3538 13.5205 11.1159 13.4986 10.9382C13.474 10.7318 13.4439 10.6056 13.474 10.3591C13.5041 10.1126 13.6408 9.76289 13.6408 9.73422C13.638 9.70843 13.6107 9.5823 13.3291 9.57944C13.0474 9.57657 12.804 9.63676 12.7767 9.71416C12.7493 9.79155 12.6946 9.96927 12.6591 10.1527C12.6099 10.4222 12.0958 11.3767 11.8031 11.8783C11.7074 11.6834 11.6254 11.5114 11.609 11.3738C11.5844 11.1675 11.5543 11.0413 11.5844 10.7948C11.6145 10.5483 11.7512 10.1986 11.7512 10.1699C11.7485 10.1441 11.7211 10.018 11.4395 10.0151C11.1578 10.0123 10.9144 10.0725 10.8871 10.1499C10.8597 10.2273 10.8297 10.4107 10.7695 10.5884C10.712 10.7661 10.0284 12.3599 9.85064 12.7755C9.76039 12.9877 9.68112 13.1568 9.62366 13.2714C9.56624 13.3861 9.62093 13.28 9.61546 13.2915C9.56624 13.389 9.53889 13.4434 9.53889 13.4434V13.4463C9.50061 13.518 9.45959 13.5867 9.44042 13.5867C9.42674 13.5867 9.3994 13.3947 9.44589 13.131C9.54707 12.5778 9.79318 11.715 9.79047 11.6834C9.79047 11.6691 9.83694 11.5172 9.63184 11.4398C9.43221 11.3624 9.36114 11.4914 9.3447 11.4914C9.3283 11.4914 9.31462 11.5373 9.31462 11.5373C9.31462 11.5373 9.53613 10.5656 8.89076 10.5656C8.48604 10.5656 7.92817 11.0271 7.65198 11.4484C7.47696 11.5487 7.10506 11.7608 6.71127 11.9873C6.56087 12.0733 6.405 12.165 6.25733 12.2482L6.22727 12.2137C5.44517 11.3394 3.99856 10.7203 4.05872 9.54504C4.0806 9.11794 4.2228 7.99142 6.83712 6.62698C8.97832 5.50907 10.6929 5.81578 10.991 6.49799C11.4148 7.47259 10.0749 9.28419 7.84893 9.54504C7.0012 9.64536 6.55543 9.30139 6.44333 9.1724C6.32575 9.03768 6.30934 9.03194 6.26558 9.05774C6.19448 9.09787 6.23824 9.21826 6.26558 9.28992C6.33122 9.47051 6.60468 9.79155 7.06956 9.95208C7.47699 10.0925 8.47242 10.1699 9.67565 9.68263C11.0238 9.13513 12.0766 7.61591 11.7676 6.34607C11.4531 5.0533 9.40766 4.62906 7.47428 5.34854C6.32298 5.77851 5.076 6.44926 4.17905 7.32927C3.11255 8.37266 2.943 9.28419 3.0141 9.66256C3.26298 11.0127 5.03772 11.8927 5.74872 12.5434C5.71317 12.5634 5.68035 12.5835 5.65027 12.6007C5.29477 12.7841 3.94114 13.5265 3.60204 14.3119C3.2192 15.2005 3.6622 15.8398 3.95754 15.9258C4.8709 16.1924 5.80614 15.7137 6.31205 14.9254C6.81519 14.1371 6.75505 13.1138 6.52261 12.6465L6.51438 12.6293L6.79331 12.4574C6.97382 12.3456 7.15157 12.2424 7.30742 12.1535C7.21994 12.4029 7.15701 12.6981 7.12423 13.1281C7.08594 13.6326 7.28283 14.2861 7.54262 14.5441C7.65748 14.6559 7.79421 14.6588 7.87898 14.6588C8.17979 14.6588 8.31652 14.3979 8.46692 14.0855C8.65288 13.7042 8.81695 13.2628 8.81695 13.2628C8.81695 13.2628 8.61186 14.4581 9.17245 14.4581C9.37755 14.4581 9.58264 14.1801 9.67562 14.0367V14.0396C9.67562 14.0396 9.68109 14.031 9.69203 14.011C9.7035 13.9932 9.71445 13.975 9.72484 13.9565V13.9508C9.80688 13.8017 9.9901 13.4606 10.2636 12.8959C10.6163 12.1678 10.9554 11.2563 10.9554 11.2563C10.9554 11.2563 10.9882 11.4799 11.0894 11.8468C11.1496 12.0647 11.2808 12.3026 11.382 12.5348C11.3 12.6551 11.2507 12.724 11.2507 12.724L11.2535 12.7268C11.1879 12.8186 11.114 12.9161 11.0375 13.0135C10.7585 13.3632 10.4249 13.7617 10.3812 13.8763C10.3292 14.011 10.3401 14.1113 10.4413 14.1916C10.5151 14.249 10.6464 14.2604 10.7859 14.249C11.0375 14.2317 11.2125 14.1658 11.3 14.1257C11.4367 14.0741 11.5926 13.9967 11.743 13.882C12.0165 13.6699 12.1833 13.369 12.1669 12.9676C12.1587 12.7469 12.0903 12.5291 12.0055 12.3227C12.0301 12.2854 12.0548 12.2481 12.0793 12.208C12.5114 11.5459 12.845 10.8178 12.845 10.8178C12.845 10.8178 12.8779 11.0414 12.979 11.4083C13.031 11.5946 13.1349 11.7982 13.2279 11.9988C12.8232 12.3457 12.5688 12.747 12.4813 13.0107C12.32 13.498 12.4458 13.7187 12.6837 13.7703C12.7903 13.7932 12.9435 13.7416 13.0583 13.69C13.2005 13.6413 13.3728 13.5581 13.5314 13.4349C13.8049 13.2228 14.0674 12.9275 14.0537 12.5291C14.0455 12.3457 13.999 12.1651 13.9361 11.9931C14.2807 11.844 14.7264 11.758 15.2925 11.8297C16.5094 11.9787 16.7501 12.7756 16.7036 13.1081C16.6571 13.4407 16.4028 13.6241 16.318 13.6814C16.2332 13.7359 16.2059 13.756 16.2141 13.7961C16.225 13.8563 16.2633 13.8534 16.3371 13.842C16.4383 13.8247 16.977 13.5697 16.9989 12.9563C17.0317 12.1679 16.318 11.3079 15.0519 11.3165ZM5.66668 14.633C5.26469 15.0945 4.69862 15.2694 4.45798 15.1203C4.19819 14.9626 4.29934 14.2833 4.79433 13.7931C5.09514 13.495 5.48619 13.2198 5.74325 13.0507C5.80067 13.0135 5.88818 12.959 5.9921 12.8931C6.0085 12.8816 6.01944 12.8759 6.01944 12.8759C6.03858 12.8644 6.06046 12.8501 6.08234 12.8357C6.26556 13.5351 6.09054 14.1486 5.66668 14.633ZM8.60639 12.5376C8.46692 12.8959 8.17158 13.8161 7.99383 13.7645C7.84067 13.7215 7.74772 13.0249 7.96373 12.337C8.07311 11.9901 8.30555 11.5774 8.44228 11.4168C8.66381 11.1588 8.90443 11.0728 8.96462 11.1789C9.03572 11.3165 8.69389 12.314 8.60639 12.5376ZM11.032 13.753C10.9718 13.7846 10.9171 13.8075 10.8925 13.7903C10.8734 13.7788 10.9171 13.7358 10.9171 13.7358C10.9171 13.7358 11.2206 13.3947 11.341 13.2371C11.4093 13.1454 11.4914 13.0393 11.5789 12.9189V12.9533C11.5789 13.366 11.2015 13.6412 11.032 13.753ZM12.9024 13.3058C12.8587 13.2714 12.8642 13.1654 13.0118 12.8329C13.0693 12.701 13.2005 12.4803 13.4275 12.271C13.4548 12.357 13.4713 12.4401 13.4685 12.5176C13.4658 13.0335 13.1158 13.2256 12.9024 13.3058Z" fill="#CF649A"/>
</svg>
